<?xml version="1.0" encoding="UTF-8" standalone="no"?>
<!-- Created with Inkscape (http://www.inkscape.org/) -->

<svg
   width="100mm"
   height="100mm"
   viewBox="0 0 100 100"
   version="1.1"
   id="svg1"
   inkscape:version="1.3.2 (091e20e, 2023-11-25, custom)"
   sodipodi:docname="绘图1.svg"
   xmlns:inkscape="http://www.inkscape.org/namespaces/inkscape"
   xmlns:sodipodi="http://sodipodi.sourceforge.net/DTD/sodipodi-0.dtd"
   xmlns="http://www.w3.org/2000/svg"
   xmlns:svg="http://www.w3.org/2000/svg">
  <sodipodi:namedview
     id="namedview1"
     pagecolor="#ffffff"
     bordercolor="#000000"
     borderopacity="0.25"
     inkscape:showpageshadow="2"
     inkscape:pageopacity="0.0"
     inkscape:pagecheckerboard="0"
     inkscape:deskcolor="#d1d1d1"
     inkscape:document-units="mm"
     showguides="true"
     inkscape:zoom="1.078249"
     inkscape:cx="178.99391"
     inkscape:cy="155.34445"
     inkscape:window-width="1920"
     inkscape:window-height="1009"
     inkscape:window-x="-8"
     inkscape:window-y="-8"
     inkscape:window-maximized="1"
     inkscape:current-layer="layer1" />
  <defs
     id="defs1" />
  <g
     inkscape:label="图层 1"
     inkscape:groupmode="layer"
     id="layer1">
    <path
       id="path6-8"
       style="fill:#e9afc6"
       d="m 30.132291,65.132292 a 10,10 0 0 1 -10,10 10,10 0 0 1 -10,-10 10,10 0 0 1 10,-10.000001 10,10 0 0 1 10,10.000001 z m 60,-25.000001 a 10,10 0 0 1 -10,10 10,10 0 0 1 -10,-10 10,10 0 0 1 10,-10.000001 10,10 0 0 1 10,10.000001 z M 80.13206,20.132104 A 20,20 0 0 0 60.132247,40.132434 V 50.13234 H 50.13234 v 9.999907 h 9.999907 v 40.000143 h 9.999906 V 60.132247 H 80.13206 A 20,20 0 0 0 100.13239,40.132434 20,20 0 0 0 80.13206,20.132104 Z M 20.132104,0.13229167 V 5.1325033 H 30.132528 V 47.81827 A 20,20 0 0 0 20.132104,45.132129 20,20 0 0 0 0.13229167,65.132458 20,20 0 0 0 20.132104,85.132271 20,20 0 0 0 40.132434,65.132458 V 5.1325033 H 50.13234 V 0.13229167 Z" />
  </g>
</svg>
