<?xml version="1.0" encoding="UTF-8" standalone="no"?>
<!-- Created with Inkscape (http://www.inkscape.org/) -->

<svg
   width="100mm"
   height="100mm"
   viewBox="0 0 100 100"
   version="1.1"
   id="svg1"
   inkscape:version="1.3.2 (091e20e, 2023-11-25, custom)"
   sodipodi:docname="logo-粉 - 副本.svg"
   xmlns:inkscape="http://www.inkscape.org/namespaces/inkscape"
   xmlns:sodipodi="http://sodipodi.sourceforge.net/DTD/sodipodi-0.dtd"
   xmlns="http://www.w3.org/2000/svg"
   xmlns:svg="http://www.w3.org/2000/svg">
  <sodipodi:namedview
     id="namedview1"
     pagecolor="#ffffff"
     bordercolor="#000000"
     borderopacity="0.25"
     inkscape:showpageshadow="2"
     inkscape:pageopacity="0.0"
     inkscape:pagecheckerboard="0"
     inkscape:deskcolor="#d1d1d1"
     inkscape:document-units="mm"
     showguides="true"
     inkscape:zoom="0.76243718"
     inkscape:cx="34.756962"
     inkscape:cy="342.97908"
     inkscape:window-width="1920"
     inkscape:window-height="1009"
     inkscape:window-x="-8"
     inkscape:window-y="-8"
     inkscape:window-maximized="1"
     inkscape:current-layer="layer1" />
  <defs
     id="defs1" />
  <g
     inkscape:label="图层 1"
     inkscape:groupmode="layer"
     id="layer1">
    <path
       id="path6-8"
       style="fill:none;stroke:#000000;stroke-width:0.988195"
       d="m 30.197609,64.986126 a 9.9011706,9.8627652 0 0 1 -9.901171,9.862765 9.9011706,9.8627652 0 0 1 -9.90117,-9.862765 9.9011706,9.8627652 0 0 1 9.90117,-9.862766 9.9011706,9.8627652 0 0 1 9.901171,9.862766 z M 89.604631,40.329212 a 9.9011706,9.8627652 0 0 1 -9.90117,9.862765 9.9011706,9.8627652 0 0 1 -9.901171,-9.862765 9.9011706,9.8627652 0 0 1 9.901171,-9.862766 9.9011706,9.8627652 0 0 1 9.90117,9.862766 z M 79.703232,20.603496 A 19.802341,19.725531 0 0 0 59.901076,40.329353 v 9.862673 h -9.901078 v 9.862673 h 9.901078 v 39.451206 h 9.901078 V 60.054699 h 9.901078 A 19.802341,19.725531 0 0 0 99.505903,40.329353 19.802341,19.725531 0 0 0 79.703232,20.603496 Z M 20.296253,0.87815198 V 5.8097435 h 9.90159 V 47.909713 A 19.802341,19.725531 0 0 0 20.296253,45.260434 19.802341,19.725531 0 0 0 0.4940975,64.986289 19.802341,19.725531 0 0 0 20.296253,84.711637 19.802341,19.725531 0 0 0 40.098921,64.986289 V 5.8097435 h 9.901077 V 0.87815198 Z" />
  </g>
</svg>
