<?xml version="1.0" encoding="UTF-8" standalone="no"?>
<!-- Created with Inkscape (http://www.inkscape.org/) -->

<svg
   width="298.07892mm"
   height="100.05214mm"
   viewBox="0 0 298.07892 100.05214"
   version="1.1"
   id="svg1"
   xml:space="preserve"
   sodipodi:docname="logo+流月.svg"
   inkscape:version="1.3.2 (091e20e, 2023-11-25, custom)"
   inkscape:export-filename="logo+流月.png"
   inkscape:export-xdpi="101.54694"
   inkscape:export-ydpi="101.54694"
   xmlns:inkscape="http://www.inkscape.org/namespaces/inkscape"
   xmlns:sodipodi="http://sodipodi.sourceforge.net/DTD/sodipodi-0.dtd"
   xmlns:xlink="http://www.w3.org/1999/xlink"
   xmlns="http://www.w3.org/2000/svg"
   xmlns:svg="http://www.w3.org/2000/svg"><sodipodi:namedview
     id="namedview1"
     pagecolor="#ffffff"
     bordercolor="#000000"
     borderopacity="0.25"
     inkscape:showpageshadow="2"
     inkscape:pageopacity="0.0"
     inkscape:pagecheckerboard="0"
     inkscape:deskcolor="#d1d1d1"
     inkscape:document-units="mm"
     inkscape:zoom="1.1672314"
     inkscape:cx="563.29874"
     inkscape:cy="188.90855"
     inkscape:window-width="1920"
     inkscape:window-height="1009"
     inkscape:window-x="-8"
     inkscape:window-y="-8"
     inkscape:window-maximized="1"
     inkscape:current-layer="layer1" /><defs
     id="defs1"><linearGradient
       id="linearGradient3"
       inkscape:collect="always"><stop
         style="stop-color:#ff1493;stop-opacity:1;"
         offset="0"
         id="stop4" /><stop
         style="stop-color:#00bfff;stop-opacity:1;"
         offset="1"
         id="stop5" /></linearGradient><linearGradient
       id="linearGradient2"
       inkscape:swatch="gradient"><stop
         style="stop-color:#aa00a6;stop-opacity:0;"
         offset="0"
         id="stop2" /><stop
         style="stop-color:#000000;stop-opacity:0;"
         offset="1"
         id="stop3" /></linearGradient><linearGradient
       id="swatch6"
       inkscape:swatch="solid"><stop
         style="stop-color:#000000;stop-opacity:1;"
         offset="0"
         id="stop6" /></linearGradient><linearGradient
       inkscape:collect="always"
       xlink:href="#linearGradient3"
       id="linearGradient5"
       x1="-455.01779"
       y1="-95.370863"
       x2="-376.48022"
       y2="-95.370863"
       gradientUnits="userSpaceOnUse" /></defs><g
     inkscape:label="图层 1"
     inkscape:groupmode="layer"
     id="layer1"
     transform="translate(0.02844344,0.04043188)"><path
       id="text1"
       style="font-size:29.3333px;font-family:FZXiaoBiaoSong-B05S;-inkscape-font-specification:'FZXiaoBiaoSong-B05S, Normal';white-space:pre;fill-opacity:0.68235296;stroke:#d77a8b;stroke-width:0.27846505;stroke-opacity:0.607843;fill:url(#linearGradient5);stroke-dasharray:none"
       transform="matrix(3.7953685,0,0,3.6751184,1726.9317,400.48485)"
       d="m -414.54624,-83.049263 0.22917,-9.968739 c -0.0764,-0.458333 -0.15278,-0.95486 -0.22917,-1.489582 -0.0764,-0.07639 0,-0.152777 0.22917,-0.229166 0.38194,0.07639 0.92646,0.637946 1.76674,0.790724 0.61111,0.07639 1.13603,-0.332391 1.44158,-0.332391 0.15278,0.152777 0.19098,0.26736 0.11459,0.343749 0,0.152778 -0.19097,0.381945 -0.57292,0.6875 -0.43076,3.42011 -1.48404,7.035881 0,9.854155 -0.22917,0.458333 -0.87847,0.802082 -1.94791,1.031249 -0.6875,0.07639 -1.03125,-0.152778 -1.03125,-0.687499 z m -4.1544,-7.367478 0.26635,-2.635644 -0.5807,-1.340615 v 0 l -0.25164,-0.183349 c 1.06944,0.152778 2.5815,0.45071 3.80372,0.756265 0.0764,0.152777 0.0764,0.305555 0,0.458332 -0.0764,0.152778 -0.30555,0.267361 -0.6875,0.34375 l -0.76575,3.483697 c -0.0764,4.583328 -1.37313,5.912125 -5.42174,7.287124 -0.30555,0 -0.34375,-0.07639 -0.11458,-0.229166 2.21527,-1.604165 3.59906,-3.586232 3.75184,-7.940394 z m 12.97731,5.534146 h 0.91666 c 0.99305,0.229167 1.79514,-1.069443 2.40625,-3.895828 0,-0.152778 0.11458,-0.152778 0.34375,0 -0.45833,1.90972 -1.04781,3.353484 -0.43671,4.19376 0.22917,0.229166 1.00962,0.389567 1.00962,0.618734 -0.15277,1.145832 -1.43566,0.966142 -3.11622,1.042531 l -2.1546,0.7908 c -1.72748,0.634033 -2.71181,-0.534722 -2.63542,-1.604165 v -9.510405 l -0.11458,-1.489582 v 0 c -0.0764,0 -0.0382,-0.03819 0.11458,-0.114583 1.06945,0.152777 2.21528,0.897683 3.4375,0.687499 l -0.0333,0.905307 c -0.0764,0.152778 -0.23407,-0.141419 -0.53963,0.01136 H -406.64 c -0.37968,2.545337 -0.98173,5.105027 0,7.562491 -0.0764,0.534721 0.22917,0.802082 0.91667,0.802081 z m -21.18015,-23.374975 c 2.44444,0 4.94752,1.26438 5.71141,2.4866 0.38195,0.91667 0.22917,1.06548 -0.45833,1.75298 -0.76389,0.61111 -1.41319,0.57292 -1.94791,-0.11458 -0.22917,-0.22917 -0.1205,-1.26438 -0.27328,-1.7991 -0.38195,-1.14583 -1.2927,-1.37104 -2.13297,-1.98215 -0.15278,-0.15277 -1.0517,-0.26736 -0.89892,-0.34375 z m -1.50733,6.87499 c 3.01043,-0.40496 3.76265,1.650219 4.22099,2.79605 0.30556,0.993054 0.24776,0.832422 -0.43974,1.443533 -0.84028,0.61111 -1.48959,0.496527 -1.94792,-0.34375 -0.22917,-0.229166 -0.38194,-0.649304 -0.45833,-1.260415 1.06174,-1.787028 -0.65076,-3.841368 -1.50817,-4.045178 -0.16542,-0.0393 -0.11949,0.4623 0.13317,1.40976 z m 2.00841,9.040028 c 0.91667,1.29861 0.93256,1.539825 3.377,-4.571279 0.61111,-1.374998 1.375,-3.055551 2.29167,-5.041659 0,-0.15278 0.0764,-0.19097 0.22916,-0.11458 0.0764,0 0.11459,0.0764 0.11459,0.22916 -1.98611,6.034716 -3.09375,10.312489 -3.32292,12.83332 0,0.916666 -0.74124,2.062498 -0.35929,3.437496 0.22917,0.763888 1.27596,1.29861 1.27596,1.604165 -0.22917,1.222221 -0.32719,1.944103 -2.29167,2.062498 -1.22222,-0.07639 -0.89621,-0.488828 -1.51898,-1.82182 l 0.39952,-1.054272 c 0.45833,-2.673608 -0.59928,-4.037095 -1.97428,-4.571816 0.84516,0.60859 1.98062,-2.622224 1.77924,-2.991213 z m 11.74158,-16.258768 c 2.74999,0.22917 3.98303,1.34832 4.13192,2.94486 0.0764,1.14583 0.18404,1.60027 -0.80901,1.98222 -1.29861,0.30555 -2.13889,0 -2.52083,-0.91667 -0.15278,-0.22916 0.30842,-0.67987 0.38481,-1.2146 0.15278,-0.99305 -0.57578,-1.72636 -1.18689,-2.33747 -0.22917,-0.15278 -0.22917,-0.30556 0,-0.45834 z m 0.22916,5.84375 h -4.35416 c -0.61111,0.0764 -1.22222,0.11458 -1.83333,0.11458 l -0.6875,-0.80208 c 0.30555,0.0764 0.6493,0.11458 1.03125,0.11458 h 13.40623 c 0.15278,-0.15278 0.42014,-0.49653 0.80209,-1.03125 0.45833,-0.6875 0.84027,-1.14583 1.14583,-1.375 0.15277,-0.0764 0.30555,-0.0764 0.45833,0 0,0.0764 0.17627,1.1155 0.32905,1.19188 1.83333,1.14584 2.76469,0.94701 2.99386,1.32895 -0.0764,0.30556 -0.19097,0.45834 -0.34375,0.45834 h -10.08332 c 0.45833,0.22917 0.87847,0.49653 1.26042,0.80208 0.0764,0.22917 0.0382,0.38194 -0.11459,0.45833 -0.84027,0 -1.47977,-0.0955 -1.78533,0.0573 l -5.08966,3.265654 10.88541,0.229166 c -0.61111,-0.993054 -1.33681,-1.680554 -2.17708,-2.0625 -0.15278,-0.15277 -0.15278,-0.26736 0,-0.34375 3.20833,0 4.96138,1.398023 5.72527,3.231357 0.22916,1.069443 0.23305,1.428363 -0.45445,2.039473 -0.84027,0.534722 -1.52777,0.420139 -2.0625,-0.343749 -0.15277,-0.07639 -0.30555,-0.381944 -0.45833,-0.916666 -0.15277,-0.458333 -0.26736,-0.802082 -0.34375,-1.031249 -2.36805,0.381944 -4.58333,0.725694 -6.64582,1.031249 -2.36805,0.381944 -4.43055,0.687499 -6.1875,0.916666 -0.38194,0.07639 -0.57291,-0.0382 -0.57291,-0.34375 -0.0764,-0.07639 -0.22917,-0.420138 -0.45833,-1.031249 -0.30556,-0.534721 -0.45834,-0.878471 -0.45834,-1.031248 -0.0764,-0.305555 -0.0382,-0.496527 0.11459,-0.572916 2.44444,-0.840277 4.43055,-2.291668 5.95832,-4.354158 z m 26.46872,-4.01042 c -1.05016,1.85554 -0.43455,3.0827 0.46611,4.75509 l 7.09638,0.51574 c -1.07042,-1.35872 -0.58672,-3.27951 0,-5.27083 z m -2.67174,11.195082 c 1.2723,-3.361107 0.17059,-8.063132 -0.76575,-11.424242 -0.0205,-0.0734 -0.0382,-0.26737 -0.11459,-0.57292 -0.0764,-0.6875 -0.0382,-1.10764 0.11459,-1.26041 0.68749,0.15277 1.83332,0.6493 3.43749,1.48958 h 6.98958 c 0.0764,-0.0764 0.19097,-0.19098 0.34375,-0.34375 0.38194,-0.45833 0.68749,-0.72569 0.91666,-0.80208 h 0.11459 c 0.0764,-0.0764 0.27836,-0.16524 0.45833,0 0.46147,0.42369 0.0598,1.68755 2.50832,1.30903 0.0764,0.22917 -0.20611,0.37152 -0.2825,0.5243 -0.22917,0.38194 0.25681,0.6493 -0.0487,0.80208 -1.10692,5.56504 -0.76435,12.650837 0,17.989562 0.33539,2.342586 0.0382,3.628468 0.11458,3.781246 -0.6875,1.145832 -2.13889,1.795137 -4.35416,1.947914 -0.22917,0 -0.38194,-0.114583 -0.45833,-0.343749 -0.76389,-1.451387 -1.98611,-2.406247 -3.66666,-2.86458 -0.15278,0 -0.19098,-0.0382 -0.11459,-0.114584 0,-0.07639 0.0764,-0.152777 0.22917,-0.229166 2.36805,0.534721 4.5715,0.431573 5.41177,-0.103148 l -0.59928,-9.063508 c -2.55741,0.0283 -5.03916,1.384977 -7.67707,0 -0.76389,6.263881 -4.12499,10.350682 -10.08332,12.260402 -0.22917,0 -0.30556,-0.07639 -0.22917,-0.229166 4.50694,-2.291664 7.60255,-5.648653 7.75533,-12.752811 z m 2.55716,0.148659 h 7.67707 v -5.499991 c -2.49651,0.0879 -4.75092,1.050873 -7.56249,0 v 4.010409 c 0,0.229167 -0.0382,0.496528 -0.11458,0.802083 -0.0764,0.305555 -0.0764,0.534721 0,0.687499 z m -58.97571,4.13458 c 0,1.481966 -1.16784,2.683335 -2.60845,2.683331 -1.4406,-2e-6 -2.60844,-1.201369 -2.60844,-2.683331 0,-1.481961 1.16784,-2.683328 2.60844,-2.68333 1.44061,-4e-6 2.60845,1.201365 2.60845,2.68333 z m 15.65065,-6.708327 c 0,1.481962 -1.16784,2.683329 -2.60844,2.683331 -1.4406,-2e-6 -2.60844,-1.201369 -2.60844,-2.683331 0,-1.481963 1.16784,-2.683334 2.60844,-2.683334 1.4406,0 2.60844,1.201371 2.60844,2.683334 z m -2.6085,-5.366714 c -2.88122,3e-5 -5.21689,2.40281 -5.21684,5.366753 v 2.683305 h -2.60841 v 2.683306 h 2.60841 v 10.733362 h 2.60842 v -10.733362 h 2.60842 c 2.88122,4.8e-5 5.21694,-2.402672 5.21697,-5.366611 5e-5,-2.963993 -2.3357,-5.366803 -5.21697,-5.366753 z m -15.65064,-5.36661 v 1.34172 h 2.60855 v 11.454006 c -0.79293,-0.471665 -1.6926,-0.720256 -2.60855,-0.720779 -2.88122,2.6e-5 -5.21689,2.402808 -5.21684,5.366749 3e-5,2.963887 2.33567,5.366585 5.21684,5.366611 2.88122,4.8e-5 5.21694,-2.402672 5.21697,-5.366611 V -107.3896 h 2.60842 v -1.34172 z"
       sodipodi:nodetypes="cccccccccccccccccscccccsccccccscccsccccccsccccccccccccscccccccccccccccccccccccccsccccccsccccccccccccccccccccccccccscccccccscccsccccccccccccccccsscsssssssssscccccccccccccccccccccccc"
       inkscape:export-filename="logo+流月.png"
       inkscape:export-xdpi="96"
       inkscape:export-ydpi="96" /></g></svg>
