<?xml version="1.0" encoding="UTF-8" standalone="no"?>
<!-- Created with Inkscape (http://www.inkscape.org/) -->

<svg
   width="490mm"
   height="100mm"
   viewBox="0 0 490 100"
   version="1.1"
   id="svg1"
   inkscape:version="1.3.2 (091e20e, 2023-11-25, custom)"
   sodipodi:docname="logo+Sitrmoo.svg"
   inkscape:export-filename="logo+Sitrmoo.svg"
   inkscape:export-xdpi="304.79999"
   inkscape:export-ydpi="304.79999"
   xml:space="preserve"
   xmlns:inkscape="http://www.inkscape.org/namespaces/inkscape"
   xmlns:sodipodi="http://sodipodi.sourceforge.net/DTD/sodipodi-0.dtd"
   xmlns="http://www.w3.org/2000/svg"
   xmlns:svg="http://www.w3.org/2000/svg"><sodipodi:namedview
     id="namedview1"
     pagecolor="#ffffff"
     bordercolor="#000000"
     borderopacity="0.25"
     inkscape:showpageshadow="2"
     inkscape:pageopacity="0.0"
     inkscape:pagecheckerboard="0"
     inkscape:deskcolor="#d1d1d1"
     inkscape:document-units="mm"
     showguides="true"
     inkscape:zoom="0.76729167"
     inkscape:cx="924.68096"
     inkscape:cy="395.54711"
     inkscape:window-width="1920"
     inkscape:window-height="1009"
     inkscape:window-x="-8"
     inkscape:window-y="-8"
     inkscape:window-maximized="1"
     inkscape:current-layer="layer1"
     inkscape:export-bgcolor="#ffffff00" /><defs
     id="defs1"><rect
       x="408.7077"
       y="108.18733"
       width="578.41333"
       height="313.24829"
       id="rect2" /><linearGradient
       id="swatch6"
       inkscape:swatch="solid"><stop
         style="stop-color:#000000;stop-opacity:1;"
         offset="0"
         id="stop6" /></linearGradient></defs><g
     inkscape:label="图层 1"
     inkscape:groupmode="layer"
     id="layer1"
     transform="translate(-0.50001001)"><text
       xml:space="preserve"
       transform="matrix(0.79381659,0,0,0.70692556,-216.55531,-97.288483)"
       id="text1"
       style="font-style:normal;font-variant:normal;font-weight:normal;font-stretch:normal;font-size:173.505px;font-family:STLiti;-inkscape-font-specification:'STLiti, Normal';font-variant-ligatures:normal;font-variant-caps:normal;font-variant-numeric:normal;font-variant-east-asian:normal;white-space:pre;shape-inside:url(#rect2);display:inline;fill:#ff1493;fill-opacity:0.5;stroke:none;stroke-width:1.33832;stroke-dasharray:none;stroke-opacity:1"><tspan
         x="408.70703"
         y="255.97789"
         id="tspan1">Sitrmoo</tspan></text><path
       id="path6-8"
       style="fill:#ff1493;fill-opacity:0.5;stroke:none;stroke-width:1.01194;stroke-opacity:1"
       d="m 30.499981,64.999928 a 9.9999904,9.9999899 0 0 1 -9.999992,9.999995 9.9999904,9.9999899 0 0 1 -9.999988,-9.999995 9.9999904,9.9999899 0 0 1 9.999988,-9.999988 9.9999904,9.9999899 0 0 1 9.999992,9.999988 z M 90.499906,39.999959 a 9.9999904,9.9999899 0 0 1 -9.999977,9.999988 9.9999904,9.9999899 0 0 1 -9.999988,-9.999988 9.9999904,9.9999899 0 0 1 9.999988,-9.999997 9.9999904,9.9999899 0 0 1 9.999977,9.999997 z M 80.4997,19.999792 A 19.99998,19.999982 0 0 0 60.499906,40.000101 v 9.999896 H 50.50001 v 9.999897 h 9.999896 V 100 h 9.999897 V 59.999894 H 80.4997 A 19.99998,19.999982 0 0 0 100.50001,40.000101 19.99998,19.999982 0 0 0 80.4997,19.999792 Z M 20.499802,0 V 5.0002066 H 30.500216 V 47.685926 A 19.99998,19.999982 0 0 0 20.499802,44.999791 19.99998,19.999982 0 0 0 0.50001001,65.0001 19.99998,19.999982 0 0 0 20.499802,84.999891 19.99998,19.999982 0 0 0 40.500113,65.0001 V 5.0002066 H 50.50001 V 0 Z" /></g></svg>
