<?xml version="1.0" encoding="UTF-8" standalone="no"?>
<!-- Created with Inkscape (http://www.inkscape.org/) -->

<svg
   width="490mm"
   height="100mm"
   viewBox="0 0 490 100"
   version="1.1"
   id="svg1"
   inkscape:version="1.3.2 (091e20e, 2023-11-25, custom)"
   sodipodi:docname="logo+Sitrmoo.svg"
   inkscape:export-filename="logo+Sitrmoo.svg"
   inkscape:export-xdpi="304.79999"
   inkscape:export-ydpi="304.79999"
   xml:space="preserve"
   xmlns:inkscape="http://www.inkscape.org/namespaces/inkscape"
   xmlns:sodipodi="http://sodipodi.sourceforge.net/DTD/sodipodi-0.dtd"
   xmlns="http://www.w3.org/2000/svg"
   xmlns:svg="http://www.w3.org/2000/svg"><sodipodi:namedview
     id="namedview1"
     pagecolor="#ffffff"
     bordercolor="#000000"
     borderopacity="0.25"
     inkscape:showpageshadow="2"
     inkscape:pageopacity="0.0"
     inkscape:pagecheckerboard="0"
     inkscape:deskcolor="#d1d1d1"
     inkscape:document-units="mm"
     showguides="true"
     inkscape:zoom="0.76729167"
     inkscape:cx="924.68096"
     inkscape:cy="395.54711"
     inkscape:window-width="1920"
     inkscape:window-height="1009"
     inkscape:window-x="-8"
     inkscape:window-y="-8"
     inkscape:window-maximized="1"
     inkscape:current-layer="layer1"
     inkscape:export-bgcolor="#ffffff00" /><defs
     id="defs1"><rect
       x="408.7077"
       y="108.18733"
       width="578.41333"
       height="313.24829"
       id="rect2" /><linearGradient
       id="swatch6"
       inkscape:swatch="solid"><stop
         style="stop-color:#000000;stop-opacity:1;"
         offset="0"
         id="stop6" /></linearGradient></defs><g
     inkscape:label="图层 1"
     inkscape:groupmode="layer"
     id="layer1"
     transform="translate(-0.50001001)"><text
       xml:space="preserve"
       transform="matrix(0.79381659,0,0,0.70692556,-217.05532,-97.288483)"
       id="text1"
       style="font-style:normal;font-variant:normal;font-weight:normal;font-stretch:normal;font-size:173.505px;font-family:STLiti;-inkscape-font-specification:'STLiti, Normal';font-variant-ligatures:normal;font-variant-caps:normal;font-variant-numeric:normal;font-variant-east-asian:normal;white-space:pre;shape-inside:url(#rect2);fill:#ff1493;fill-opacity:0.5;stroke:none;stroke-width:1.33832;stroke-dasharray:none;stroke-opacity:1"><tspan
         x="408.70703"
         y="255.97789"
         id="tspan2">Sitrmoo</tspan></text><path
       id="path6-8"
       style="fill:#ff1493;fill-opacity:0.5;stroke:none;stroke-width:1.00002;stroke-opacity:1"
       d="m 29.699963,64.11874 a 9.8999879,9.8644225 0 0 1 -9.899989,9.864428 9.8999879,9.8644225 0 0 1 -9.899986,-9.864428 9.8999879,9.8644225 0 0 1 9.899986,-9.86442 9.8999879,9.8644225 0 0 1 9.899989,9.86442 z M 89.099874,39.45769 a 9.8999879,9.8644225 0 0 1 -9.899975,9.86442 9.8999879,9.8644225 0 0 1 -9.899986,-9.86442 9.8999879,9.8644225 0 0 1 9.899986,-9.86443 9.8999879,9.8644225 0 0 1 9.899975,9.86443 z M 79.199672,19.72866 A 19.799975,19.728847 0 0 0 59.399881,39.45783 v 9.86433 h -9.899894 v 9.86433 h 9.899894 v 39.457835 h 9.899896 V 59.18649 h 9.899895 A 19.799975,19.728847 0 0 0 98.999974,39.45783 19.799975,19.728847 0 0 0 79.199672,19.72866 Z M 19.799789,0 v 4.93242 h 9.900407 V 47.03946 A 19.799975,19.728847 0 0 0 19.799789,44.38974 19.799975,19.728847 0 0 0 0,64.11891 19.799975,19.728847 0 0 0 19.799789,83.847569 19.799975,19.728847 0 0 0 39.600092,64.11891 V 4.93242 h 9.899895 V 0 Z" /></g></svg>
